<?xml version="1.0" encoding="UTF-8" standalone="no"?>
<svg
   xmlns="http://www.w3.org/2000/svg"
   version="1.1"
   width="10"
   height="6"
   viewBox="0 0 10 6">
  <rect
     width="10"
     height="6"
     x="0"
     y="0"
     id="canvas"
     style="fill:none;stroke:none;visibility:hidden" />
  <path
    d="M 1 1 
        c 0 1, 1 2, 2 2
        s 3 -2, 4 -2
        s 2 1, 2 2
        l 0 1" 
    style="fill:none;stroke:black;stroke-width:0.5"/>
  <path
    d="M 1 1
        l 0 1 
        c 0 1, 1 2, 2 2
        s 3 -2, 4 -2
        s 2 1, 2 2
        l 0 1" 
    style="fill:none;stroke:black;stroke-width:0.5"/>
  <path
    d="M 1 2 
        l 0 1 
        c 0 1, 1 2, 2 2
        s 3 -2, 4 -2
        s 2 1, 2 2" 
    style="fill:none;stroke:black;stroke-width:0.5"/>

     >
</svg>
